<?xml version="1.0" encoding="UTF-8"?>
<svg id="_레이어_2" data-name="레이어 2" xmlns="http://www.w3.org/2000/svg" viewBox="0 0 836.68 1210.42">
  <defs>
    <style>
      .cls-1 {
        fill: #fff;
      }

      .cls-2 {
        fill: #3cced0;
      }

      .cls-3 {
        fill: #cf5b4c;
      }
    </style>
  </defs>
  <g id="_레이어_1-2" data-name="레이어 1">
    <path class="cls-3" d="M73.48,23.28v1163.87c0,20.69,25.02,31.06,39.65,16.43l581.93-581.93c9.07-9.07,9.07-23.78,0-32.85L113.14,6.85c-14.63-14.63-39.65-4.27-39.65,16.42Z"/>
    <path class="cls-2" d="M836.68,805.47v-412.43c0-10.35-12.51-15.53-19.83-8.21l-206.21,206.21c-4.54,4.54-4.54,11.89,0,16.43l206.21,206.22c7.32,7.32,19.83,2.13,19.83-8.21Z"/>
    <g>
      <circle class="cls-1" cx="86.21" cy="599.26" r="86.21"/>
      <circle class="cls-3" cx="86.21" cy="599.26" r="52.48"/>
      <circle class="cls-1" cx="325.9" cy="599.26" r="86.21"/>
      <circle class="cls-3" cx="325.9" cy="599.26" r="52.48"/>
    </g>
  </g>
</svg>