<?xml version="1.0" encoding="UTF-8"?>
<svg id="_레이어_1" data-name="레이어 1" xmlns="http://www.w3.org/2000/svg" xmlns:xlink="http://www.w3.org/1999/xlink" viewBox="0 0 390 603">
  <defs>
    <style>
      .cls-1 {
        fill: #5a5580;
      }

      .cls-2 {
        fill: #fff;
      }

      .cls-3 {
        fill: #272c32;
      }

      .cls-4 {
        fill: #2ce9f7;
      }

      .cls-5 {
        fill: url(#_무제_그라디언트_44);
      }

      .cls-6 {
        fill: url(#_무제_그라디언트_70-2);
      }

      .cls-7 {
        fill: #cf5b4c;
      }

      .cls-8 {
        fill: url(#_무제_그라디언트_70);
      }
    </style>
    <linearGradient id="_무제_그라디언트_44" data-name="무제 그라디언트 44" x1="250.03" y1="264.8" x2="250.03" y2="234.31" gradientTransform="translate(0 157.46)" gradientUnits="userSpaceOnUse">
      <stop offset="0" stop-color="#cf5b4c"/>
      <stop offset="1" stop-color="#77261c" stop-opacity=".3"/>
    </linearGradient>
    <linearGradient id="_무제_그라디언트_70" data-name="무제 그라디언트 70" x1="196.9" y1="348.99" x2="196.9" y2="340.49" gradientTransform="translate(-34.64 8.49)" gradientUnits="userSpaceOnUse">
      <stop offset="0" stop-color="#2ce9f7"/>
      <stop offset="1" stop-color="#2579da" stop-opacity=".4"/>
    </linearGradient>
    <linearGradient id="_무제_그라디언트_70-2" data-name="무제 그라디언트 70" x1="194.3" y1="376.29" x2="194.3" y2="367.79" gradientTransform="translate(143.5 -18.82)" xlink:href="#_무제_그라디언트_70"/>
  </defs>
  <ellipse class="cls-1" cx="250.03" cy="497.51" rx="126.86" ry="10.64"/>
  <path class="cls-7" d="M163.01,141.12h174.04c2.76,0,5,2.24,5,5v329.35h-184.04V146.12c0-2.76,2.24-5,5-5Z"/>
  <path class="cls-4" d="M354,497.52c6.6,0,11.95-5.35,11.95-11.95v-202.54c0-23.76-19.25-43.02-43.02-43.02h-145.8c-23.76,0-43.02,19.26-43.02,43.02v202.54c0,6.6,5.35,11.95,11.95,11.95h0c6.6,0,11.95-5.35,11.95-11.95v-202.54c0-10.56,8.56-19.12,19.12-19.12h145.8c10.55,0,19.12,8.58,19.12,19.12v202.54c0,6.6,5.35,11.95,11.95,11.95h0Z"/>
  <rect class="cls-4" x="158.01" y="314.67" width="184.04" height="77.1"/>
  <rect class="cls-5" x="158.01" y="391.78" width="184.04" height="30.49"/>
  <rect class="cls-8" x="123.7" y="348.98" width="77.1" height="8.5" transform="translate(-190.97 515.48) rotate(-90)"/>
  <rect class="cls-6" x="299.25" y="348.98" width="77.1" height="8.5" transform="translate(691.02 15.42) rotate(90)"/>
  <rect class="cls-1" x="211.46" y="345.55" width="77.14" height="12.28" rx="4.99" ry="4.99"/>
  <path class="cls-3" d="M287.46,387.21c-.17.86-.51,1.65-1,2.34-.96,1.37-2.49,2.27-4.27,2.27h-65.63c-1.79,0-3.31-.9-4.27-2.27-.5-.69-.84-1.48-1-2.34-.18-.94-.14-1.97.18-2.97l12.28-38.69h51.24l12.28,38.69c.32,1.01.36,2.03.18,2.97Z"/>
  <path class="cls-3" d="M286.46,389.55c-.96,1.37-2.49,2.27-4.27,2.27h-65.63c-1.79,0-3.31-.9-4.27-2.27.03-.13.06-.27.11-.39l11.98-37.75h49.99l11.98,37.75c.05.13.08.27.11.39Z"/>
  <path class="cls-1" d="M287.46,387.21l-.91,4.74c-.43,2.54-2.51,4.6-5.17,4.6h-64.02c-2.65,0-4.73-2.06-5.17-4.6l-.91-4.74c.17.86.51,1.65,1,2.34.96,1.37,2.49,2.27,4.27,2.27h65.63c1.79,0,3.31-.9,4.27-2.27.5-.69.84-1.48,1-2.34Z"/>
  <ellipse class="cls-1" cx="102.15" cy="542.21" rx="155.14" ry="16.32"/>
  <circle class="cls-7" cx="124" cy="352.23" r="83.99"/>
  <path class="cls-7" d="M40,352.24v167.97s0,0,0,0v13.87c0,4.49,3.64,8.13,8.13,8.13h55.74c4.48,0,8.13-3.64,8.13-8.13v-13.87c0-6.63,5.37-12,12-12,6.63,0,12,5.37,12,12v13.87c0,4.49,3.64,8.13,8.13,8.13h55.74c4.49,0,8.13-3.64,8.13-8.13v-181.84s-167.98,0-167.98,0Z"/>
  <circle class="cls-2" cx="165.94" cy="342.77" r="30.17"/>
  <circle class="cls-7" cx="173.83" cy="342.77" r="18.36"/>
  <circle class="cls-7" cx="207.98" cy="400.73" r="19.72"/>
</svg>