<?xml version="1.0" encoding="UTF-8"?>
<svg id="_레이어_1" data-name="레이어 1" xmlns="http://www.w3.org/2000/svg" viewBox="0 0 1920 1080">
  <defs>
    <style>
      .cls-1 {
        fill: #fff;
      }

      .cls-2 {
        fill: #2ce9f7;
      }

      .cls-3 {
        fill: #cf5b4c;
      }
    </style>
  </defs>
  <g>
    <path class="cls-3" d="M787.57,249.03v581.93c0,10.35,12.51,15.53,19.83,8.21l290.96-290.96c4.54-4.54,4.54-11.89,0-16.43l-290.96-290.97c-7.32-7.32-19.83-2.13-19.83,8.21Z"/>
    <g>
      <circle class="cls-1" cx="793.94" cy="537.02" r="43.11"/>
      <circle class="cls-3" cx="793.94" cy="537.02" r="26.24"/>
      <circle class="cls-1" cx="913.78" cy="537.02" r="43.11"/>
      <circle class="cls-3" cx="913.78" cy="537.02" r="26.24"/>
    </g>
  </g>
  <path class="cls-2" d="M1169.17,643.11v-206.21c0-5.17-6.26-7.76-9.91-4.11l-103.11,103.11c-2.27,2.27-2.27,5.94,0,8.21l103.11,103.11c3.66,3.66,9.91,1.07,9.91-4.11Z"/>
</svg>